<?xml version="1.0" encoding="iso-8859-1"?>
<!-- Generator: Adobe Illustrator 21.0.0, SVG Export Plug-In . SVG Version: 6.00 Build 0)  -->
<svg xmlns="http://www.w3.org/2000/svg" xmlns:xlink="http://www.w3.org/1999/xlink" version="1.1" id="Capa_1" x="0px" y="0px" viewBox="0 0 512 512" style="enable-background:new 0 0 512 512;" xml:space="preserve" width="512" height="512">
<g>
	<circle style="fill:#FAB941;" cx="250.5" cy="267" r="245"/>
	<path style="fill:#5D5D84;" d="M67.424,345.362l15.12,12.687c13.98-6.458,29.495-8.83,44.66-6.952   c3.832,0.475,7.718-0.313,11.111-2.156c23.036-12.518,43.585-29.263,60.518-49.443l49.548-59.05   c10.612-12.647,19.461-26.674,26.306-41.698l6.133-13.462c9.741,4.426,19.295,10.612,28.376,18.232   c9.082,7.621,16.832,15.955,22.883,24.779l-12.193,8.377c-13.607,9.35-25.885,20.5-36.497,33.147l-49.548,59.049   c-16.933,20.179-29.854,43.325-38.182,68.184c-1.226,3.661-1.327,7.626-0.195,11.317c4.483,14.608,4.842,30.299,0.909,45.188   l15.119,12.687c3.223,2.705,3.644,7.51,0.939,10.733l-12.643,15.067c-2.705,3.223-7.51,3.644-10.733,0.939l-29.615-24.85   c-3.718-3.12-4.701-8.464-2.273-12.666c11.236-19.455,7.243-44.75-10.563-59.691c-17.806-14.941-43.41-14.481-60.619-0.037   c-3.717,3.12-9.15,3.08-12.868-0.039l-28.132-23.605c-3.223-2.705-3.644-7.51-0.939-10.733l12.643-15.067   C59.395,343.078,64.2,342.657,67.424,345.362z"/>
	<g>
		<path style="fill:#494970;" d="M280.819,185.289l-6.133,13.462c-14.137,31.032-31.374,46.785-40.63,58.769    c19.393-7.444,39.421,10.214,33.994,30.586c11.131-12.252,23.526-31.976,51.836-51.428l12.192-8.378    C320.053,210.762,300.213,194.102,280.819,185.289z"/>
	</g>
	<path style="fill:#E2E9F2;" d="M337.805,3.4l163.504,137.196c6.147,5.158,6.949,14.324,1.791,20.471L371.78,317.568   c-5.158,6.148-14.324,6.95-20.471,1.791l-8.057-6.761c-4.359-3.658-5.757-9.72-3.564-14.972   c13.902-33.303-1.738-66.714-32.099-92.19c-30.361-25.476-65.98-35.076-96.363-15.602c-4.791,3.071-11.004,2.748-15.363-0.91   l-8.057-6.761c-6.147-5.158-6.949-14.324-1.791-20.471L317.334,5.191C322.492-0.957,331.658-1.759,337.805,3.4z"/>
	<g>
		<path style="fill:#C7D6E5;" d="M251.635,179.733l106.33-126.719c8.892-10.597,22.5-13.819,30.394-7.196L337.805,3.4    c-6.147-5.158-15.313-4.356-20.471,1.791l-131.32,156.501c-5.158,6.148-4.356,15.313,1.791,20.471l8.057,6.761    c4.36,3.658,10.572,3.982,15.363,0.91C224.027,181.629,237.759,178.603,251.635,179.733z"/>
	</g>
	<g>
		<path style="fill:#C7D6E5;" d="M490.132,185.257c-1.983,0-3.976-0.671-5.614-2.045L298.753,27.335    c-3.698-3.102-4.18-8.615-1.077-12.313c3.103-3.698,8.616-4.181,12.314-1.077l185.765,155.876    c3.698,3.102,4.18,8.616,1.077,12.313C495.103,184.195,492.627,185.257,490.132,185.257z"/>
	</g>
	<g>
		<path style="fill:#C7D6E5;" d="M469.357,210.016c-1.982,0-3.976-0.671-5.614-2.045L277.977,52.095    c-3.698-3.102-4.18-8.616-1.077-12.313c3.102-3.698,8.615-4.181,12.314-1.077L474.98,194.581c3.697,3.102,4.18,8.616,1.077,12.313    C474.328,208.954,471.852,210.016,469.357,210.016z"/>
	</g>
	
		<ellipse transform="matrix(0.1736 -0.9848 0.9848 0.1736 118.1975 472.6789)" style="fill:#C7D6E5;" cx="340.757" cy="165.908" rx="22.851" ry="22.851"/>
	<path style="fill:#AEBFCE;" d="M340.77,143.077c-10.896-0.017-20.56,7.764-22.517,18.863c-2.191,12.428,6.107,24.28,18.536,26.471   c9.727,1.715,19.079-3.011,23.745-11.098C342.83,177.286,332.041,158.207,340.77,143.077z"/>
	<g>
		<path style="fill:#AEBFCE;" d="M347.958,57.312c2.397-2.856,6.004-4.084,9.442-3.586l-47.41-39.782    c-3.698-3.103-9.21-2.621-12.313,1.077c-3.104,3.697-2.621,9.211,1.076,12.313l47.22,39.622    C345.007,63.726,345.628,60.089,347.958,57.312z"/>
	</g>
	<g>
		<path style="fill:#AEBFCE;" d="M327.214,82.123c2.405-2.866,6.029-4.092,9.476-3.581l-47.477-39.838    c-3.699-3.104-9.211-2.621-12.314,1.077c-3.104,3.698-2.621,9.211,1.077,12.313l47.241,39.64    C324.266,88.512,324.893,84.89,327.214,82.123z"/>
	</g>
	<g>
		<path style="fill:#494970;" d="M69.283,431.879c-0.012-8.183,2.081-16.413,6.362-23.81c2.444-4.222,1.473-9.58-2.245-12.7    c-9.373-7.865-18.74-15.724-28.132-23.605c-3.223-2.705-8.04-2.27-10.759,0.97l-3.197,3.81    C41.425,396.738,54.232,415.346,69.283,431.879z"/>
		<path style="fill:#494970;" d="M189.339,492.653c-20.712-17.379-9.309-7.811-29.615-24.85c-3.718-3.119-9.163-3.145-12.897-0.005    c-6.175,5.192-13.42,8.587-20.993,10.137c19.622,11.622,40.997,20.597,63.645,26.402l0.772-0.92    C192.971,500.177,192.562,495.358,189.339,492.653z"/>
	</g>
</g>















</svg>
