<svg xmlns="http://www.w3.org/2000/svg" height="512pt" viewBox="0 -12 512 512" width="512pt"><path d="m497 0h-482c-8.285156 0-15 6.714844-15 15v457.238281c0 8.285157 6.714844 15 15 15h482c8.285156 0 15-6.714843 15-15v-457.238281c0-8.285156-6.714844-15-15-15zm-15 457.238281h-452v-337.96875h452zm0-367.96875h-452v-59.269531h452zm0 0"/><path d="m465.378906 59.429688c0 8.285156-6.714844 15-15 15s-15-6.714844-15-15c0-8.285157 6.714844-15 15-15s15 6.714843 15 15zm0 0"/><path d="m411.074219 59.429688c0 8.285156-6.71875 15-15 15-8.285157 0-15-6.714844-15-15 0-8.285157 6.714843-15 15-15 8.28125 0 15 6.714843 15 15zm0 0"/><path d="m71.664062 59.429688c0 8.285156-6.714843 15-15 15-8.285156 0-15-6.714844-15-15 0-8.285157 6.714844-15 15-15 8.285157 0 15 6.714843 15 15zm0 0"/><path d="m66.066406 170.894531h369.613282c7.941406 0 14.382812-6.625 14.382812-14.796875 0-8.175781-6.441406-14.800781-14.382812-14.800781h-369.613282c-7.945312 0-14.386718 6.625-14.386718 14.800781 0 8.171875 6.441406 14.796875 14.386718 14.796875zm0 0"/><path d="m66.066406 368.402344h161.171875c7.945313 0 14.382813-6.625 14.382813-14.796875s-6.4375-14.800781-14.382813-14.800781h-161.171875c-7.945312 0-14.386718 6.628906-14.386718 14.800781s6.441406 14.796875 14.386718 14.796875zm0 0"/><path d="m228.328125 272.96875h-161.171875c-7.945312 0-14.386719 6.628906-14.386719 14.800781s6.441407 14.796875 14.386719 14.796875h161.171875c7.945313 0 14.386719-6.625 14.386719-14.796875s-6.441406-14.800781-14.386719-14.800781zm0 0"/><path d="m66.066406 236.730469h369.613282c7.941406 0 14.382812-6.625 14.382812-14.796875 0-8.175782-6.441406-14.800782-14.382812-14.800782h-369.613282c-7.945312 0-14.386718 6.625-14.386718 14.800782 0 8.171875 6.441406 14.796875 14.386718 14.796875zm0 0"/><path d="m228.328125 404.644531h-161.171875c-7.945312 0-14.386719 6.625-14.386719 14.796875s6.441407 14.800782 14.386719 14.800782h161.171875c7.945313 0 14.386719-6.628907 14.386719-14.800782s-6.441406-14.796875-14.386719-14.796875zm0 0"/><path d="m423.632812 272.832031c-7.945312 0-14.386718 6.625-14.386718 14.796875v97.917969l-107.398438-108.476563c-4.132812-4.175781-10.300781-5.390624-15.644531-3.085937s-8.820313 7.6875-8.820313 13.648437v133.1875c0 8.171876 6.441407 14.800782 14.386719 14.800782 7.945313 0 14.382813-6.628906 14.382813-14.800782v-97.917968l107.398437 108.480468c2.746094 2.769532 6.382813 4.238282 10.085938 4.238282 1.875 0 3.765625-.378906 5.5625-1.152344 5.339843-2.308594 8.820312-7.6875 8.820312-13.648438v-133.1875c0-8.175781-6.441406-14.800781-14.386719-14.800781zm0 0"/></svg>